<svg aria-hidden="true" style="position: absolute; width: 0; height: 0; overflow: hidden;" version="1.1" xmlns="http://www.w3.org/2000/svg" xmlns:xlink="http://www.w3.org/1999/xlink">
<defs>
<symbol id="icon-logo" viewBox="0 0 120 32">
<path fill="#333" style="fill: var(--color1, #333)" d="M29.296 24.631h2.422v-17.93h6.188v-1.992h-8.61v19.922zM41.935 23.583c0.352-0.601 0.679-1.285 0.837-1.973 0.225-0.955 0.262-2.669 0.318-2.889 0.038-0.147 0.056-4.154 0.056-12.020l4.722 0.009v18.017h2.39v-20.018h-9.358v14.013c-0.018 0.757-0.207 1.726-0.374 2.461-0.117 0.515-0.113 0.698-0.374 1.149-0.192 0.335-0.769 0.7-1.097 0.88-0.316 0.157-0.66 0.236-1.009 0.231v1.285c0.145 0.064 0.297 0.112 0.451 0.143 0.373 0.102 0.757 0.15 1.141 0.143 0.432-0.002 0.857-0.12 1.235-0.343 0.433-0.264 0.798-0.637 1.062-1.087zM56.696 13.687c-0.567-0.627-0.85-1.691-0.851-3.193s0.284-2.565 0.851-3.192c0.567-0.627 1.473-0.941 2.717-0.941h1.92v8.267h-1.92c-1.244-0-2.15-0.314-2.717-0.941zM55.844 17.020c-0.406 0.662-0.686 1.397-0.823 2.166l-0.548 2.423c-0.113 0.504-0.349 0.97-0.686 1.354-0.416 0.37-0.961 0.55-1.509 0.498v1.285c0.171 0.059 0.345 0.106 0.521 0.142 0.367 0.1 0.745 0.148 1.125 0.142 1.555 0 2.607-1.14 3.156-3.421l0.549-2.423c0.238-0.988 0.594-1.662 1.070-2.024 0.44-0.348 0.98-0.539 1.536-0.541h1.098v8.123h2.47v-19.667c-0.686-0.207-1.389-0.355-2.099-0.442-0.761-0.089-1.526-0.132-2.291-0.128-0.943-0.019-1.885 0.092-2.8 0.328-0.701 0.18-1.344 0.543-1.866 1.055-0.497 0.521-0.856 1.164-1.044 1.867-0.236 0.892-0.347 1.813-0.329 2.736-0.014 0.764 0.097 1.525 0.329 2.252 0.191 0.592 0.479 1.146 0.851 1.639 0.324 0.427 0.731 0.781 1.193 1.040 0.415 0.235 0.864 0.399 1.331 0.485v0.115c-0.509 0.178-0.945 0.529-1.234 0.995zM75.83 4.709v8.823h-5.846v-8.823h-2.505v19.922h2.505v-9.107h5.846v9.107h2.505v-19.922h-2.505zM84.556 15.239h6.055v-1.992h-6.055v-6.546h6.881v-1.992h-9.358v19.922h9.358v-1.992h-6.88v-7.4zM105.258 28.845h1.527v-6.247h-1.804v-17.889h-2.499v17.889h-5.551v-17.889h-2.499v19.877h9.993c0.080 1.452 0.36 2.886 0.834 4.26zM113.748 14.628c1.244 0 2.15 0.318 2.717 0.955s0.85 1.743 0.851 3.32c0 1.577-0.284 2.684-0.851 3.32s-1.473 0.955-2.717 0.955h-1.92v-8.551h1.92zM111.889 12.858v-8.15h-2.483v19.731c0.69 0.208 1.395 0.356 2.11 0.443 0.764 0.089 1.533 0.132 2.303 0.129 0.949 0.020 1.895-0.096 2.813-0.343 0.704-0.189 1.349-0.558 1.875-1.072 0.503-0.531 0.864-1.186 1.048-1.901 0.238-0.923 0.35-1.876 0.331-2.831 0-2.288-0.428-3.908-1.283-4.861s-2.174-1.43-3.958-1.43c-0.478 0.003-0.956 0.032-1.432 0.086-0.445 0.043-0.887 0.11-1.325 0.2z"></path>
<path fill="#ffe30b" style="fill: var(--color2, #ffe30b)" d="M14.283 4.507c-6.53 2.188-12.037 6.649-14.283 13.296 2.22 6.571 7.676 11.082 14.283 13.296 5.875-4.501 9.079-8.115 11.436-13.296-3.383-2.257-4.804-3.419-7.547-6.911-3.675 1.696-6.873 3.672-9.707 6.839 1.017 1.439 2.705 2.783 4.070 3.886 1.989-1.453 3.506-2.868 4.489-4.082 0.616 0.748 1.311 1.246 1.973 1.662-1.709 2.889-3.627 4.476-5.996 5.991-3.558-1.872-6.418-5.111-7.808-7.85 2.605-4.268 6.691-7.15 11.335-8.756-0.752-1.309-1.738-2.528-2.244-4.074z"></path>
<path fill="#333" style="fill: var(--color1, #333)" d="M30.538 30.262c0.687 0 1.163-0.53 1.163-1.374 0-0.849-0.476-1.368-1.163-1.368-0.368 0-0.692 0.189-0.882 0.454v-0.389h-0.406v3.607h0.406v-1.39c0.211 0.292 0.525 0.46 0.882 0.46zM30.435 29.9c-0.319 0-0.638-0.195-0.779-0.422v-1.179c0.141-0.227 0.46-0.416 0.779-0.416 0.525 0 0.838 0.427 0.838 1.006s-0.314 1.011-0.838 1.011z"></path>
<path fill="#333" style="fill: var(--color1, #333)" d="M33.487 30.262c0.795 0 1.293-0.617 1.293-1.374s-0.498-1.368-1.293-1.368c-0.795 0-1.293 0.611-1.293 1.368s0.498 1.374 1.293 1.374zM33.487 29.9c-0.557 0-0.871-0.476-0.871-1.011 0-0.53 0.314-1.006 0.871-1.006s0.865 0.476 0.865 1.006c0 0.535-0.308 1.011-0.865 1.011z"></path>
<path fill="#333" style="fill: var(--color1, #333)" d="M36.366 30.262c0.752 0 1.195-0.325 1.195-0.763 0-0.433-0.454-0.617-0.757-0.638 0.308-0.038 0.703-0.249 0.703-0.638 0-0.444-0.498-0.703-1.201-0.698-0.476 0-0.828 0.168-1.071 0.416l0.211 0.249c0.222-0.227 0.508-0.335 0.876-0.335 0.433 0 0.763 0.168 0.763 0.416 0 0.297-0.341 0.438-0.773 0.438h-0.584v0.33h0.584c0.46 0 0.822 0.108 0.822 0.433 0 0.276-0.303 0.454-0.768 0.454-0.389 0-0.736-0.119-0.979-0.352l-0.2 0.26c0.26 0.26 0.654 0.427 1.179 0.427z"></path>
<path fill="#333" style="fill: var(--color1, #333)" d="M39.506 30.262c0.687 0 1.163-0.53 1.163-1.374 0-0.849-0.476-1.368-1.163-1.368-0.368 0-0.692 0.189-0.882 0.454v-0.389h-0.406v3.607h0.406v-1.39c0.211 0.292 0.525 0.46 0.882 0.46zM39.404 29.9c-0.319 0-0.638-0.195-0.779-0.422v-1.179c0.141-0.227 0.46-0.416 0.779-0.416 0.525 0 0.838 0.427 0.838 1.006s-0.314 1.011-0.838 1.011z"></path>
<path fill="#333" style="fill: var(--color1, #333)" d="M42.455 30.262c0.795 0 1.293-0.617 1.293-1.374s-0.498-1.368-1.293-1.368c-0.795 0-1.293 0.611-1.293 1.368s0.498 1.374 1.293 1.374zM42.455 29.9c-0.557 0-0.871-0.476-0.871-1.011 0-0.53 0.314-1.006 0.871-1.006s0.865 0.476 0.865 1.006c0 0.535-0.308 1.011-0.865 1.011z"></path>
<path fill="#333" style="fill: var(--color1, #333)" d="M45.55 29.9c-0.557 0-0.871-0.476-0.871-1.017 0-0.525 0.314-1.001 0.871-1.001s0.865 0.476 0.865 1.001c0 0.541-0.308 1.017-0.865 1.017zM45.55 30.262c0.806 0 1.287-0.627 1.287-1.379 0-0.741-0.481-1.363-1.222-1.363-0.465 0-0.795 0.26-0.984 0.557 0.092-0.444 0.325-0.779 1.098-0.887 0.444-0.059 1.028-0.173 1.028-0.6h-0.395c0 0.108-0.162 0.178-0.736 0.265-0.909 0.119-1.368 0.644-1.368 1.915 0 0.865 0.492 1.493 1.293 1.493z"></path>
<path fill="#333" style="fill: var(--color1, #333)" d="M49.829 30.197l-1.163-1.428 1.157-1.184h-0.514l-1.374 1.39v-1.39h-0.406v2.612h0.406v-0.746l0.433-0.427 0.941 1.174h0.519z"></path>
<path fill="#333" style="fill: var(--color1, #333)" d="M52.348 30.197v-1.796c0-0.633-0.46-0.882-1.011-0.882-0.427 0-0.763 0.141-1.044 0.433l0.189 0.281c0.233-0.249 0.487-0.362 0.8-0.362 0.379 0 0.66 0.2 0.66 0.552v0.471c-0.211-0.243-0.508-0.357-0.865-0.357-0.444 0-0.914 0.276-0.914 0.86 0 0.568 0.471 0.865 0.914 0.865 0.352 0 0.649-0.124 0.865-0.362v0.297h0.406zM51.223 29.97c-0.379 0-0.644-0.238-0.644-0.568 0-0.335 0.265-0.573 0.644-0.573 0.287 0 0.562 0.108 0.719 0.325v0.492c-0.157 0.216-0.433 0.325-0.719 0.325z"></path>
<path fill="#333" style="fill: var(--color1, #333)" d="M55.437 30.197v-2.255h0.763v-0.357h-1.925v0.357h0.757v2.255h0.406z"></path>
<path fill="#333" style="fill: var(--color1, #333)" d="M58.77 30.197v-1.796c0-0.633-0.46-0.882-1.011-0.882-0.427 0-0.763 0.141-1.044 0.433l0.189 0.281c0.233-0.249 0.487-0.362 0.8-0.362 0.379 0 0.66 0.2 0.66 0.552v0.471c-0.211-0.243-0.508-0.357-0.865-0.357-0.444 0-0.914 0.276-0.914 0.86 0 0.568 0.471 0.865 0.914 0.865 0.352 0 0.649-0.124 0.865-0.362v0.297h0.406zM57.646 29.97c-0.379 0-0.644-0.238-0.644-0.568 0-0.335 0.265-0.573 0.644-0.573 0.287 0 0.562 0.108 0.719 0.325v0.492c-0.157 0.216-0.433 0.325-0.719 0.325z"></path>
<path fill="#333" style="fill: var(--color1, #333)" d="M63.152 30.197v-2.612h-2.174v2.612h0.406v-2.255h1.363v2.255h0.406z"></path>
<path fill="#333" style="fill: var(--color1, #333)" d="M64.162 27.212c0.151 0 0.276-0.119 0.276-0.27s-0.124-0.276-0.276-0.276c-0.146 0-0.27 0.124-0.27 0.276s0.124 0.27 0.27 0.27zM64.368 30.197v-2.612h-0.406v2.612h0.406z"></path>
<path fill="#333" style="fill: var(--color1, #333)" d="M64.868 30.862h0.406v-0.665h1.974v0.665h0.406v-1.022h-0.303v-2.255h-1.817l-0.168 1.287c-0.103 0.773-0.254 0.946-0.498 0.99v1.001zM65.891 27.942h1.055v1.898h-1.552c0.189-0.151 0.314-0.427 0.379-0.919l0.119-0.979z"></path>
<path fill="#333" style="fill: var(--color1, #333)" d="M69.090 30.197v-2.255h0.763v-0.357h-1.925v0.357h0.757v2.255h0.406z"></path>
<path fill="#333" style="fill: var(--color1, #333)" d="M71.672 30.262c0.687 0 1.163-0.53 1.163-1.374 0-0.849-0.476-1.368-1.163-1.368-0.368 0-0.692 0.189-0.882 0.454v-0.389h-0.406v3.607h0.406v-1.39c0.211 0.292 0.525 0.46 0.882 0.46zM71.569 29.9c-0.319 0-0.638-0.195-0.779-0.422v-1.179c0.141-0.227 0.46-0.416 0.779-0.416 0.525 0 0.838 0.427 0.838 1.006s-0.314 1.011-0.838 1.011z"></path>
<path fill="#333" style="fill: var(--color1, #333)" d="M73.869 30.197l1.379-2.034v2.034h0.406v-2.612h-0.4l-1.368 1.996v-1.996h-0.406v2.612h0.389z"></path>
<path fill="#333" style="fill: var(--color1, #333)" d="M79.13 30.197v-2.612h-0.541l-0.79 1.936-0.8-1.936h-0.535v2.612h0.406v-2.050l0.855 2.050h0.151l0.849-2.050v2.050h0.406z"></path>
<path fill="#333" style="fill: var(--color1, #333)" d="M82.238 30.197l-1.163-1.428 1.157-1.184h-0.514l-1.374 1.39v-1.39h-0.406v2.612h0.406v-0.746l0.433-0.427 0.941 1.174h0.519z"></path>
<path fill="#333" style="fill: var(--color1, #333)" d="M84.756 30.197v-1.796c0-0.633-0.46-0.882-1.011-0.882-0.427 0-0.763 0.141-1.044 0.433l0.189 0.281c0.233-0.249 0.487-0.362 0.8-0.362 0.379 0 0.66 0.2 0.66 0.552v0.471c-0.211-0.243-0.508-0.357-0.865-0.357-0.444 0-0.914 0.276-0.914 0.86 0 0.568 0.471 0.865 0.914 0.865 0.352 0 0.649-0.124 0.865-0.362v0.297h0.406zM83.631 29.97c-0.379 0-0.644-0.238-0.644-0.568 0-0.335 0.265-0.573 0.644-0.573 0.287 0 0.562 0.108 0.719 0.325v0.492c-0.157 0.216-0.433 0.325-0.719 0.325z"></path>
<path fill="#333" style="fill: var(--color1, #333)" d="M88.116 30.262c0.476 0 0.757-0.195 0.957-0.454l-0.27-0.249c-0.173 0.233-0.395 0.341-0.665 0.341-0.557 0-0.903-0.433-0.903-1.011s0.346-1.006 0.903-1.006c0.27 0 0.492 0.103 0.665 0.341l0.27-0.249c-0.2-0.26-0.481-0.454-0.957-0.454-0.779 0-1.303 0.595-1.303 1.368 0 0.779 0.525 1.374 1.303 1.374z"></path>
<path fill="#333" style="fill: var(--color1, #333)" d="M91.68 30.197v-1.796c0-0.633-0.46-0.882-1.011-0.882-0.427 0-0.763 0.141-1.044 0.433l0.189 0.281c0.233-0.249 0.487-0.362 0.8-0.362 0.379 0 0.66 0.2 0.66 0.552v0.471c-0.211-0.243-0.508-0.357-0.865-0.357-0.444 0-0.914 0.276-0.914 0.86 0 0.568 0.471 0.865 0.914 0.865 0.352 0 0.649-0.124 0.865-0.362v0.297h0.406zM90.555 29.97c-0.379 0-0.644-0.238-0.644-0.568 0-0.335 0.265-0.573 0.644-0.573 0.287 0 0.562 0.108 0.719 0.325v0.492c-0.157 0.216-0.433 0.325-0.719 0.325z"></path>
<path fill="#333" style="fill: var(--color1, #333)" d="M92.883 30.197l1.379-2.034v2.034h0.406v-2.612h-0.4l-1.368 1.996v-1.996h-0.406v2.612h0.389zM94.527 26.812l-0.2-0.173c-0.168 0.243-0.433 0.389-0.746 0.389-0.319 0-0.579-0.151-0.752-0.389l-0.2 0.173c0.222 0.292 0.568 0.476 0.952 0.476 0.389 0 0.73-0.184 0.946-0.476z"></path>
<path fill="#333" style="fill: var(--color1, #333)" d="M96.359 30.197v-2.255h0.763v-0.357h-1.925v0.357h0.757v2.255h0.406z"></path>
<path fill="#333" style="fill: var(--color1, #333)" d="M97.854 27.212c0.151 0 0.276-0.119 0.276-0.27s-0.124-0.276-0.276-0.276c-0.146 0-0.27 0.124-0.27 0.276s0.124 0.27 0.27 0.27zM98.060 30.197v-2.612h-0.406v2.612h0.406z"></path>
<path fill="#333" style="fill: var(--color1, #333)" d="M100.334 30.197c0.481 0 0.763-0.287 0.763-0.709 0-0.297-0.211-0.573-0.476-0.638 0.222-0.070 0.422-0.281 0.422-0.595 0-0.395-0.276-0.671-0.736-0.671h-1.439v2.612h1.466zM100.253 29.84h-0.979v-0.806h0.979c0.276 0 0.422 0.195 0.422 0.406 0 0.249-0.162 0.4-0.422 0.4zM100.237 28.677h-0.963v-0.736h0.963c0.249 0 0.389 0.146 0.389 0.373 0 0.206-0.135 0.362-0.389 0.362z"></path>
<path fill="#333" style="fill: var(--color1, #333)" d="M114.414 4.056v-2.255h0.763v-0.357h-1.925v0.357h0.757v2.255h0.406z"></path>
<path fill="#333" style="fill: var(--color1, #333)" d="M118.375 4.056v-2.612h-0.541l-0.79 1.936-0.8-1.936h-0.535v2.612h0.406v-2.050l0.855 2.050h0.151l0.849-2.050v2.050h0.406z"></path>
</symbol>
<symbol id="icon-facebook" viewBox="0 0 32 32">
<path fill="#3b5998" style="fill: var(--color3, #3b5998)" d="M0 16c0-8.837 7.163-16 16-16s16 7.163 16 16c0 8.837-7.163 16-16 16s-16-7.163-16-16z"></path>
<path fill="#3b5998" style="fill: var(--color3, #3b5998)" d="M4.571 0h22.857c2.525 0 4.571 2.047 4.571 4.571v22.857c0 2.525-2.047 4.571-4.571 4.571h-22.857c-2.525 0-4.571-2.047-4.571-4.571v-22.857c0-2.525 2.047-4.571 4.571-4.571z"></path>
<path fill="#fff" style="fill: var(--color4, #fff)" d="M17.668 25.408v-8.705h2.403l0.318-3h-2.721l0.004-1.501c0-0.782 0.074-1.202 1.198-1.202h1.502v-3h-2.403c-2.887 0-3.903 1.455-3.903 3.902v1.801h-1.799v3h1.799v8.704h3.602z"></path>
</symbol>
<symbol id="icon-instagram" viewBox="0 0 32 32">
<path fill="#000" style="fill: var(--color5, #000)" d="M0 16c0-8.837 7.163-16 16-16s16 7.163 16 16c0 8.837-7.163 16-16 16s-16-7.163-16-16z"></path>
<path fill="#000" style="fill: var(--color5, #000)" d="M4.571 0h22.857c2.525 0 4.571 2.047 4.571 4.571v22.857c0 2.525-2.047 4.571-4.571 4.571h-22.857c-2.525 0-4.571-2.047-4.571-4.571v-22.857c0-2.525 2.047-4.571 4.571-4.571z"></path>
<path fill="#fff" style="fill: var(--color4, #fff)" d="M11.619 16c0-2.42 1.962-4.382 4.382-4.382s4.382 1.962 4.382 4.382-1.961 4.381-4.382 4.381c-2.42 0-4.382-1.961-4.382-4.381zM18.845 16c0-1.571-1.274-2.844-2.844-2.844s-2.845 1.273-2.845 2.844c0 1.571 1.273 2.844 2.845 2.844s2.844-1.274 2.844-2.844z"></path>
<path fill="#fff" style="fill: var(--color4, #fff)" d="M19.532 11.445c0-0.566 0.459-1.024 1.024-1.024s1.024 0.458 1.024 1.024c0 0.565-0.459 1.024-1.024 1.024s-1.024-0.459-1.024-1.024z"></path>
<path fill="#fff" style="fill: var(--color4, #fff)" d="M12.482 7.518c0.91-0.041 1.201-0.052 3.519-0.052h-0.003c2.318 0 2.608 0.010 3.518 0.052 0.908 0.042 1.529 0.185 2.073 0.396 0.562 0.218 1.036 0.509 1.511 0.984s0.766 0.95 0.985 1.512c0.21 0.543 0.354 1.163 0.397 2.071 0.041 0.91 0.052 1.201 0.052 3.519s-0.011 2.608-0.052 3.518c-0.043 0.908-0.187 1.528-0.397 2.071-0.219 0.561-0.51 1.037-0.985 1.512s-0.95 0.767-1.511 0.985c-0.543 0.211-1.164 0.355-2.072 0.396-0.91 0.041-1.2 0.052-3.518 0.052s-2.608-0.010-3.518-0.052c-0.908-0.042-1.528-0.185-2.072-0.396-0.561-0.218-1.037-0.51-1.511-0.985s-0.766-0.95-0.984-1.512c-0.211-0.543-0.355-1.163-0.396-2.071-0.041-0.91-0.052-1.2-0.052-3.518s0.011-2.609 0.051-3.519c0.041-0.908 0.185-1.528 0.396-2.071 0.219-0.561 0.51-1.037 0.985-1.511s0.95-0.766 1.512-0.984c0.543-0.211 1.163-0.355 2.071-0.396zM15.716 9.004c-0.173-0-0.333-0-0.481 0v-0.002c-1.59 0.002-1.895 0.012-2.683 0.048-0.832 0.038-1.284 0.177-1.585 0.294-0.398 0.155-0.683 0.34-0.981 0.639s-0.484 0.583-0.639 0.981c-0.117 0.301-0.256 0.752-0.294 1.584-0.041 0.9-0.049 1.168-0.049 3.447s0.008 2.549 0.049 3.449c0.038 0.832 0.177 1.284 0.294 1.584 0.155 0.398 0.34 0.682 0.639 0.981s0.583 0.484 0.981 0.638c0.301 0.117 0.752 0.256 1.585 0.294 0.9 0.041 1.17 0.050 3.448 0.050s2.549-0.009 3.448-0.050c0.832-0.038 1.284-0.177 1.584-0.294 0.398-0.155 0.682-0.34 0.981-0.638s0.484-0.582 0.639-0.98c0.117-0.3 0.256-0.752 0.294-1.584 0.041-0.9 0.050-1.17 0.050-3.447s-0.009-2.548-0.050-3.447c-0.038-0.832-0.177-1.284-0.294-1.584-0.155-0.398-0.34-0.683-0.639-0.981s-0.582-0.484-0.981-0.638c-0.301-0.117-0.752-0.256-1.584-0.294-0.9-0.041-1.17-0.049-3.448-0.049l-0.284-0z"></path>
</symbol>
<symbol id="icon-vaber" viewBox="0 0 32 32">
<path fill="#675da9" style="fill: var(--color6, #675da9)" d="M16 32c8.837 0 16-7.163 16-16s-7.163-16-16-16c-8.837 0-16 7.163-16 16s7.163 16 16 16z"></path>
<path fill="#675da9" style="fill: var(--color6, #675da9)" d="M4.571 0h22.857c2.525 0 4.571 2.047 4.571 4.571v22.857c0 2.525-2.047 4.571-4.571 4.571h-22.857c-2.525 0-4.571-2.047-4.571-4.571v-22.857c0-2.525 2.047-4.571 4.571-4.571z"></path>
<path fill="#fff" style="fill: var(--color4, #fff)" d="M24.985 11.977l-0.006-0.023c-0.454-1.85-2.5-3.835-4.379-4.248l-0.021-0.004c-3.039-0.585-6.12-0.585-9.159 0l-0.022 0.004c-1.878 0.413-3.924 2.398-4.379 4.248l-0.005 0.023c-0.561 2.584-0.561 5.204 0 7.787l0.005 0.023c0.435 1.771 2.329 3.665 4.137 4.186v2.065c0 0.747 0.903 1.114 1.417 0.575l2.075-2.175c0.45 0.025 0.9 0.040 1.351 0.040 1.53 0 3.060-0.146 4.579-0.438l0.021-0.004c1.879-0.413 3.925-2.398 4.379-4.248l0.006-0.023c0.561-2.584 0.561-5.204 0-7.787zM23.343 19.39c-0.303 1.207-1.856 2.707-3.091 2.985-1.616 0.31-3.245 0.442-4.872 0.397-0.032-0.001-0.064 0.012-0.086 0.035-0.231 0.239-1.515 1.568-1.515 1.568l-1.611 1.668c-0.118 0.124-0.325 0.040-0.325-0.131v-3.421c0-0.056-0.040-0.105-0.095-0.115l-0.001-0c-1.234-0.277-2.787-1.778-3.091-2.985-0.505-2.335-0.505-4.703 0-7.038 0.304-1.207 1.856-2.707 3.091-2.985 2.822-0.541 5.683-0.541 8.505 0 1.235 0.277 2.788 1.778 3.091 2.985 0.506 2.335 0.506 4.703 0 7.038z"></path>
<path fill="#fff" style="fill: var(--color4, #fff)" d="M18.685 20.969c-0.19-0.058-0.371-0.097-0.538-0.167-1.74-0.728-3.342-1.667-4.61-3.107-0.721-0.819-1.286-1.743-1.763-2.721-0.226-0.464-0.417-0.946-0.612-1.425-0.177-0.437 0.084-0.888 0.359-1.217 0.258-0.309 0.59-0.545 0.95-0.719 0.281-0.136 0.557-0.058 0.762 0.182 0.443 0.519 0.85 1.064 1.18 1.665 0.203 0.37 0.147 0.822-0.22 1.073-0.089 0.061-0.171 0.133-0.254 0.202-0.073 0.061-0.142 0.122-0.192 0.204-0.091 0.15-0.096 0.327-0.037 0.49 0.453 1.255 1.216 2.231 2.469 2.757 0.201 0.084 0.402 0.182 0.633 0.155 0.387-0.046 0.512-0.473 0.783-0.697 0.265-0.218 0.604-0.221 0.889-0.039s0.562 0.378 0.837 0.575c0.27 0.194 0.539 0.384 0.788 0.605 0.239 0.213 0.322 0.492 0.187 0.78-0.247 0.528-0.606 0.968-1.124 1.249-0.146 0.079-0.321 0.105-0.486 0.156 0.165-0.051-0.19-0.058 0 0zM16.005 11.007c2.276 0.064 4.146 1.588 4.547 3.857 0.068 0.387 0.093 0.782 0.123 1.174 0.013 0.165-0.080 0.322-0.257 0.324-0.183 0.002-0.265-0.152-0.276-0.317-0.023-0.327-0.040-0.655-0.084-0.979-0.236-1.71-1.588-3.124-3.276-3.428-0.254-0.046-0.514-0.058-0.771-0.085-0.163-0.017-0.376-0.027-0.412-0.231-0.030-0.171 0.113-0.307 0.274-0.316 0.044-0.002 0.088-0 0.132-0 2.276 0.064-0.044-0 0 0z"></path>
<path fill="#fff" style="fill: var(--color4, #fff)" d="M19.464 15.529c-0.004 0.029-0.006 0.096-0.022 0.16-0.060 0.23-0.407 0.259-0.487 0.027-0.024-0.069-0.027-0.148-0.027-0.222-0.001-0.486-0.106-0.972-0.349-1.395-0.25-0.435-0.632-0.8-1.080-1.021-0.271-0.134-0.564-0.217-0.86-0.266-0.13-0.022-0.261-0.035-0.391-0.053-0.158-0.022-0.242-0.124-0.235-0.281 0.007-0.147 0.114-0.253 0.273-0.244 0.522 0.030 1.027 0.144 1.491 0.392 0.944 0.504 1.484 1.3 1.641 2.363 0.007 0.048 0.019 0.096 0.022 0.144 0.009 0.119 0.015 0.239 0.024 0.396-0.004 0.029-0.009-0.157 0 0z"></path>
<path fill="#fff" style="fill: var(--color4, #fff)" d="M18.048 15.474c-0.19 0.003-0.292-0.103-0.312-0.279-0.014-0.123-0.024-0.247-0.053-0.367-0.057-0.235-0.181-0.453-0.377-0.597-0.093-0.068-0.198-0.118-0.308-0.15-0.14-0.041-0.285-0.029-0.424-0.064-0.151-0.037-0.235-0.161-0.211-0.304 0.022-0.13 0.147-0.232 0.289-0.222 0.883 0.064 1.513 0.524 1.603 1.572 0.006 0.074 0.014 0.152-0.002 0.223-0.028 0.121-0.117 0.182-0.203 0.188 0.087-0.006-0.19 0.003 0 0z"></path>
</symbol>

<symbol id="icon-tel" viewBox="0 0 31 32">
<path d="M15.36 20.753l7.693-7.693-1.809-1.811-5.884 5.888-5.883-5.888-1.81 1.81 7.693 7.694z"></path>
</symbol>

</defs>
</svg>
